# AST/ASF file generated using VICON BodyLanguage
# -----------------------------------------------
:version 1.10
:name VICON
:units
  mass 1.0
  length 0.45
  angle deg
:documentation
   .ast/.asf automatically generated from VICON data using
   VICON BodyBuilder and BodyLanguage model FoxedUp or BRILLIANT.MOD
:root
   order TX TY TZ RX RY RZ
   axis XYZ
   position 0 0 0  
   orientation 0 0 0 
:bonedata
  begin
     id 1 
     name lhipjoint
     direction 0.578396 -0.714046 0.394458 
     length 2.21935 
     axis 0 0 0  XYZ
  end
  begin
     id 2 
     name lfemur
     direction 0.34202 -0.939693 0  
     length 6.39105  
     axis 0 0 20  XYZ
    dof rx ry rz
    limits (-160.0 20.0)
           (-70.0 70.0)
           (-60.0 70.0)
  end
  begin
     id 3 
     name ltibia
     direction 0.34202 -0.939693 0   
     length 6.99037   
     axis 0 0 20   XYZ
    dof rx
    limits (-10.0 170.0)
  end
  begin
     id 4 
     name lfoot
     direction 0.0582372 -0.160005 0.985397   
     length 2.06111   
     axis -90 7.62852e-016 20   XYZ
    dof rx rz
    limits (-45.0 90.0)
           (-70.0 20.0)
  end
  begin
     id 5 
     name ltoes
     direction 1.53556e-011 -4.21875e-011 1   
     length 1.04074   
     axis -90 7.62852e-016 20   XYZ
    dof rx
    limits (-90.0 20.0)
  end
  begin
     id 6 
     name rhipjoint
     direction -0.558179 -0.726269 0.40121   
     length 2.182  
     axis 0 0 0  XYZ 
  end
  begin
     id 7 
     name rfemur
     direction -0.34202 -0.939693 0   
     length 6.51172   
     axis 0 0 -20   XYZ
    dof rx ry rz
    limits (-160.0 20.0)
           (-70.0 70.0)
           (-70.0 60.0)
  end
  begin
     id 8 
     name rtibia
     direction -0.34202 -0.939693 0   
     length 7.02607   
     axis 0 0 -20   XYZ
    dof rx
    limits (-10.0 170.0)
 end
 begin
     id 9 
     name rfoot
     direction -0.0788856 -0.216737 0.973038   
     length 1.96734  
     axis -90 -7.62852e-016 -20   XYZ
    dof rx rz
    limits (-45.0 90.0)
           (-20.0 70.0)
  end
  begin
     id 10 
     name rtoes
     direction -1.53567e-011 -4.21783e-011 1   
     length 0.990825   
     axis -90 -7.62852e-016 -20   XYZ
    dof rx
    limits (-90.0 20.0)
  end
  begin
     id 11 
     name lowerback
     direction 0.00668177 0.999323 -0.0361741   
     length 1.7655   
     axis 0 0 0   XYZ
    dof rx ry rz
    limits (-20.0 45.0)
           (-30.0 30.0)
           (-30.0 30.0)
  end
  begin
     id 12 
     name upperback
     direction -0.00222086 0.99851 0.0545167   
     length 1.74912   
     axis 0 0 0   XYZ
    dof rx ry rz
    limits (-20.0 45.0)
           (-30.0 30.0)
           (-30.0 30.0)
  end
  begin
     id 13 
     name thorax
     direction -0.00733971 0.997496 0.0703443   
     length 1.75715   
     axis 0 0 0   XYZ
    dof rx ry rz
    limits (-20.0 45.0)
           (-30.0 30.0)
           (-30.0 30.0)
  end
  begin
     id 14 
     name lowerneck
     direction 0.0279797 0.994795 0.0979765   
     length 1.46939   
     axis 0 0 0   XYZ
    dof rx ry rz
    limits (-20.0 45.0)
           (-30.0 30.0)
           (-30.0 30.0)
  end
  begin
     id 15 
     name upperneck
     direction 0.00339187 0.976776 -0.214238   
     length 1.48018   
     axis 0 0 0   XYZ
    dof rx ry rz
    limits (-20.0 45.0)
           (-30.0 30.0)
           (-30.0 30.0)
  end
  begin
     id 16
     name head
     direction -0.00263506 0.996603 -0.0823096  
     length 1.4976  
     axis 0 0 0   XYZ
    dof rx ry rz
    limits (-20.0 45.0)
           (-30.0 30.0)
           (-30.0 30.0)
  end
  begin
     id 17 
     name lclavicle
     direction 0.894044 0.44508 -0.0508781  
     length 3.03024  
     axis 0 0 0   XYZ
    dof ry rz
    limits (-20.0 10.0)
           (0.0 20.0)
  end
  begin
     id 18 
     name lhumerus
     direction 1 -4.48961e-011 -2.39475e-018   
     length 4.4661   
     axis 180 -30 -90   XYZ
    dof rx ry rz
    limits (-60.0 90.0)
           (-90.0 90.0)
           (-90.0 90.0)
  end
  begin
     id 19
     name lradius
     direction 1 -4.48961e-011 9.29328e-028   
     length 3.41414   
     axis 180 -30 -90   XYZ
    dof rx
    limits (-10.0 170.0)
  end
  begin
     id 20
     name lwrist
     direction 1 -4.48985e-011 1.53461e-026   
     length 1.70707   
     axis -1.09697e-014 90 90   XYZ
    dof ry
    limits (-180.0 0.0)
 end
  begin
     id 21 
     name lhand
     direction 1 -4.48966e-011 3.06923e-026   
     length 0.328298   
     axis -1.95843e-014 90 90   XYZ
    dof rx rz
    limits (-90.0 90.0)
           (-45.0 45.0)
  end
  begin
     id 22 
     name lfingers
     direction 1 -4.48893e-011 6.13845e-026   
     length 0.264682   
     axis -3.91686e-014 90 90   XYZ
    dof rx
    limits (0.0 90.0)
  end
  begin
     id 23
     name lthumb
     direction 0.707107 -6.34876e-011 0.707107   
     length 0.380032   
     axis -90 45 2.85299e-015   XYZ
    dof rx rz
    limits (-45.0 45.0)
           (-45.0 45.0)
  end
  begin
     id 24 
     name rclavicle
     direction -0.936955 0.347862 -0.0332887   
     length 3.26927  
     axis 0 0 0   XYZ 
    dof ry rz
    limits (-10.0 20.0)
           (-20.0 0.0)
  end
  begin
     id 25 
     name rhumerus
     direction -1 -4.4896e-011 1.78637e-018  
     length 4.40431   
     axis 180 30 90   XYZ
    dof rx ry rz
    limits (-90.0 60.0)
           (-90.0 90.0)
           (-90.0 90.0)
  end
  begin
     id 26 
     name rradius
     direction -1 -4.48955e-011 9.34036e-027   
     length 3.04688   
     axis 180 30 90   XYZ
    dof rx
    limits (-10.0 170.0)
  end
  begin
     id 27 
     name rwrist
     direction -1 -4.49011e-011 1.53461e-026   
     length 1.52344   
     axis -1.09697e-014 -90 -90   XYZ
    dof ry
    limits (-180.0 0.0)
  end
  begin
     id 28
     name rhand
     direction -1 -4.48834e-011 3.06923e-026   
     length 0.500489   
     axis -1.95843e-014 -90 -90   XYZ
    dof rx rz
    limits (-90.0 90.0)
           (-45.0 45.0)
  end
  begin
     id 29
     name rfingers
     direction -1 -4.48967e-011 6.13845e-026   
     length 0.403507   
     axis -3.91686e-014 -90 -90   XYZ
    dof rx
    limits (0.0 90.0)
  end
  begin
     id 30
     name rthumb
     direction -0.707107 -6.34826e-011 0.707107   
     length 0.579358   
     axis -90 -45 -2.85299e-015   XYZ
    dof rx rz
    limits (-45.0 45.0)
           (-45.0 45.0)
  end
:hierarchy
  begin
    root lhipjoint rhipjoint lowerback
    lhipjoint lfemur
    lfemur ltibia
    ltibia lfoot
    lfoot ltoes
    rhipjoint rfemur
    rfemur rtibia
    rtibia rfoot
    rfoot rtoes
    lowerback upperback
    upperback thorax
    thorax lowerneck lclavicle rclavicle
    lowerneck upperneck
    upperneck head
    lclavicle lhumerus
    lhumerus lradius
    lradius lwrist
    lwrist lhand lthumb
    lhand lfingers
    rclavicle rhumerus
    rhumerus rradius
    rradius rwrist
    rwrist rhand rthumb
    rhand rfingers
  end

#!OML:ASF H:\IndianDance\Patient Classification 1\Patient 1\Session 1\dancer.ASF
:FULLY-SPECIFIED
:DEGREES
1633
root 5.38646 14.0154 -5.92701 -176.369 -15.2462 -167.93
lowerback 17.3211 2.95583 -2.51535
upperback -3.35403 2.25671 -6.03515
thorax -13.4305 0.780046 -5.98907
lowerneck -13.4706 15.9421 12.473
upperneck 9.02563 20.7703 -11.8689
head 7.48349 9.63235 -3.18109
rclavicle -4.77083e-015 -5.40694e-014
rhumerus -52.2273 42.8931 -64.7869
rradius 128.583
rwrist -32.1109
rhand -26.6825 3.04381
rfingers 7.12502
rthumb -0.113427 -26.9359
lclavicle -4.77083e-015 -5.40694e-014
lhumerus 4.82162 -45.7383 12.0231
lradius 58.7863
lwrist -0.261705
lhand -56.3638 20.301
lfingers 7.12502
lthumb -28.6839 48.1187
rfemur -41.9879 -22.3516 43.7231
rtibia 63.7615
rfoot -27.1173 -11.0178
rtoes 14.2176
lfemur -57.9197 29.6457 -10.0825
ltibia 66.1112
lfoot -14.3097 13.8782
ltoes 10.6017
1634
root 5.44136 13.9908 -5.95661 -176.106 -15.1852 -167.942
lowerback 17.2935 2.9684 -2.72216
upperback -3.37106 2.17902 -6.21858
thorax -13.4452 0.739854 -6.05708
lowerneck -13.4283 16.0227 12.3821
upperneck 8.82162 20.8871 -11.9134
head 7.41929 9.68994 -3.17159
rclavicle -1.90833e-014 -9.54166e-015
rhumerus -52.1395 42.7229 -64.7296
rradius 128.531
rwrist -31.6218
rhand -26.5904 3.44282
rfingers 7.12502
rthumb -0.0244555 -26.5369
lclavicle -1.90833e-014 -9.54166e-015
lhumerus 4.92883 -44.8203 12.2039
lradius 56.5597
lwrist -1.28134
lhand -56.6628 19.5466
lfingers 7.12502
lthumb -28.9695 47.3156
rfemur -42.3346 -22.0313 44.0772
rtibia 64.0661
rfoot -27.3961 -11.1985
rtoes 14.537
lfemur -57.535 29.2377 -9.65125
ltibia 64.5395
lfoot -12.4134 13.6845
ltoes 10.3839
1635
root 5.49582 13.964 -5.98373 -175.873 -15.0985 -167.959
lowerback 17.3188 2.98874 -2.93869
upperback -3.38567 2.10475 -6.40029
thorax -13.4892 0.70069 -6.12283
lowerneck -13.4169 16.0983 12.3056
upperneck 8.64221 20.9925 -11.9516
head 7.36759 9.74121 -3.16123
rclavicle 3.02153e-014 -2.22639e-013
rhumerus -52.016 42.5415 -64.6497
rradius 128.472
rwrist -31.1976
rhand -26.4704 3.8372
rfingers 7.12502
rthumb 0.0914335 -26.1425
lclavicle 3.02153e-014 -2.22639e-013
lhumerus 5.03858 -43.8333 12.3778
lradius 54.4357
lwrist -2.2871
lhand -56.8571 18.9406
lfingers 7.12502
lthumb -29.155 46.6776
rfemur -42.6426 -21.6103 44.3905
rtibia 64.3869
rfoot -27.6773 -11.4569
rtoes 14.819
lfemur -57.4096 29.0043 -9.24376
ltibia 63.7333
lfoot -11.0242 13.1938
ltoes 10.1713
1636
root 5.54997 13.9352 -6.00862 -175.673 -14.9929 -167.983
lowerback 17.3996 3.01665 -3.17096
upperback -3.39755 2.03241 -6.57574
thorax -13.5643 0.662761 -6.17748
lowerneck -13.4024 16.1651 12.2376
upperneck 8.45625 21.0846 -11.9948
head 7.31327 9.78656 -3.15627
rclavicle 2.22639e-014 1.84472e-013
rhumerus -51.8689 42.3583 -64.5461
rradius 128.414
rwrist -30.8362
rhand -26.343 4.21289
rfingers 7.12502
rthumb 0.214428 -25.7667
lclavicle 2.22639e-014 1.84472e-013
lhumerus 5.14272 -42.7887 12.5548
lradius 52.4304
lwrist -3.19455
lhand -56.9647 18.4668
lfingers 7.12502
lthumb -29.2577 46.1859
rfemur -42.9103 -21.1023 44.6622
rtibia 64.7236
rfoot -27.9682 -11.7944
rtoes 15.0792
lfemur -57.5081 28.9334 -8.86134
ltibia 63.5654
lfoot -10.2066 12.5418
ltoes 10.026
1637
root 5.60362 13.9038 -6.03192 -175.502 -14.8791 -168.024
lowerback 17.5314 3.05014 -3.42749
upperback -3.40273 1.95593 -6.74975
thorax -13.664 0.623587 -6.21922
lowerneck -13.396 16.2269 12.1805
upperneck 8.26125 21.1667 -12.0404
head 7.25764 9.82741 -3.15488
rclavicle -6.36111e-015 -8.26944e-014
rhumerus -51.7051 42.1733 -64.4351
rradius 128.359
rwrist -30.5235
rhand -26.2434 4.5699
rfingers 7.12502
rthumb 0.310695 -25.4096
lclavicle -6.36111e-015 -8.26944e-014
lhumerus 5.25068 -41.7032 12.7138
lradius 50.557
lwrist -3.93271
lhand -57.0038 18.0642
lfingers 7.12502
lthumb -29.2952 45.7768
rfemur -43.1451 -20.53 44.8887
rtibia 65.077
rfoot -28.2686 -12.2025
rtoes 15.3295
lfemur -57.749 29.0018 -8.52463
ltibia 63.8136
lfoot -9.77628 11.8761
ltoes 9.53636
1638
root 5.65682 13.8713 -6.05416 -175.355 -14.7689 -168.092
lowerback 17.7029 3.08773 -3.71685
upperback -3.3979 1.87116 -6.92395
thorax -13.778 0.58204 -6.24252
lowerneck -13.3831 16.2786 12.109
upperneck 8.03362 21.2336 -12.079
head 7.18627 9.86272 -3.15389
rclavicle 3.49861e-014 1.7175e-013
rhumerus -51.5345 41.9939 -64.3184
rradius 128.31
rwrist -30.2416
rhand -26.1933 4.91178
rfingers 7.12502
rthumb 0.35903 -25.0677
lclavicle 3.49861e-014 1.7175e-013
lhumerus 5.36138 -40.5819 12.8619
lradius 48.8157
lwrist -4.48315
lhand -57.0104 17.6613
lfingers 7.12502
lthumb -29.3014 45.3728
rfemur -43.3494 -19.9241 45.0642
rtibia 65.434
rfoot -28.5742 -12.6664
rtoes 15.5782
lfemur -58.0414 29.1685 -8.24271
ltibia 64.2424
lfoot -9.77366 11.2902
ltoes 9.24161
1639
root 5.7096 13.8398 -6.07607 -175.22 -14.6734 -168.199
lowerback 17.8964 3.12655 -4.04443
upperback -3.38217 1.77297 -7.10155
thorax -13.8953 0.536166 -6.24488
lowerneck -13.3605 16.3232 12.0372
upperneck 7.77296 21.2899 -12.1258
head 7.10249 9.89391 -3.15899
rclavicle 2.8625e-014 1.36764e-013
rhumerus -51.3676 41.8209 -64.2093
rradius 128.266
rwrist -29.9747
rhand -26.2027 5.23925
rfingers 7.12502
rthumb 0.349977 -24.7402
lclavicle 2.8625e-014 1.36764e-013
lhumerus 5.47327 -39.4253 13.0007
lradius 47.1997
lwrist -4.87434
lhand -56.9982 17.1585
lfingers 7.12502
lthumb -29.2897 44.8721
rfemur -43.5235 -19.3157 45.1867
rtibia 65.7728
rfoot -28.8779 -13.1705
rtoes 15.7916
lfemur -58.2923 29.3658 -8.01097
ltibia 64.6312
lfoot -10.015 10.7739
ltoes 7.98233
1640
root 5.76247 13.8126 -6.09758 -175.082 -14.6108 -168.355
lowerback 18.1013 3.15927 -4.41714
upperback -3.35636 1.64891 -7.28673
thorax -14.0114 0.480398 -6.22256
lowerneck -13.3424 16.3641 11.9656
upperneck 7.48832 21.3386 -12.1764
head 7.01145 9.92201 -3.16713
rclavicle 4.37326e-014 1.90833e-014
rhumerus -51.2109 41.6578 -64.122
rradius 128.227
rwrist -29.7044
rhand -26.2654 5.55331
rfingers 7.12502
rthumb 0.289377 -24.4262
lclavicle 4.37326e-014 1.90833e-014
lhumerus 5.57798 -38.2201 13.1371
lradius 45.6961
lwrist -5.17305
lhand -56.9795 16.4762
lfingers 7.12502
lthumb -29.2719 44.1929
rfemur -43.6742 -18.7421 45.2564
rtibia 66.0645
rfoot -29.1595 -13.6886
rtoes 15.9637
lfemur -58.4883 29.5697 -7.86282
ltibia 64.8792
lfoot -9.84737 10.432
ltoes 7.53404
1641
root 5.8156 13.7924 -6.11848 -174.932 -14.5908 -168.558
lowerback 18.3094 3.18148 -4.82034
upperback -3.32427 1.49698 -7.47966
thorax -14.1249 0.412847 -6.18296
lowerneck -13.3208 16.4004 11.9001
upperneck 7.18261 21.38 -12.242
head 6.91495 9.94654 -3.18274
rclavicle -4.21423e-014 6.04305e-014
rhumerus -51.0784 41.5023 -64.062
rradius 128.192
rwrist -29.4213
rhand -26.3566 5.85128
rfingers 7.12502
rthumb 0.201373 -24.1284
lclavicle -4.21423e-014 6.04305e-014
lhumerus 5.67075 -36.9805 13.2763
lradius 44.3008
lwrist -5.44443
lhand -56.9579 15.7378
lfingers 7.12502
lthumb -29.2513 43.4581
rfemur -43.8026 -18.2277 45.2788
rtibia 66.2852
rfoot -29.411 -14.1884
rtoes 16.12
lfemur -58.6279 29.7577 -7.80905
ltibia 64.9757
lfoot -9.61427 10.1653
ltoes 7.17627
1642
root 5.86894 13.7796 -6.13862 -174.768 -14.6184 -168.793
lowerback 18.5192 3.18943 -5.23398
upperback -3.28967 1.31791 -7.67745
thorax -14.2383 0.332775 -6.13451
lowerneck -13.3064 16.4361 11.8476
upperneck 6.87241 21.4187 -12.3219
head 6.82124 9.96892 -3.20432
rclavicle 4.77083e-015 -9.54166e-014
rhumerus -50.9838 41.3513 -64.0365
rradius 128.165
rwrist -29.1218
rhand -26.447 6.12304
rfingers 7.12502
rthumb 0.114046 -23.8567
lclavicle 4.77083e-015 -9.54166e-014
lhumerus 5.7516 -35.7067 13.422
lradius 43.0005
lwrist -5.76001
lhand -56.9338 14.9447
lfingers 7.12502
lthumb -29.2283 42.6689
rfemur -43.9135 -17.7848 45.2706
rtibia 66.4278
rfoot -29.6271 -14.6402
rtoes 16.2658
lfemur -58.7554 29.9365 -7.84918
ltibia 64.9746
lfoot -9.32386 9.84963
ltoes 6.90777
